# ProBuilder 4.5.0
# https://unity3d.com/unity/features/worldbuilding/probuilder
# 6/05/2021 5:30:59 PM

mtllib ./BulletCasing.mtl
o BulletCasing

g BulletCasing
v -0.01626784 -0.003199995 -2.304712E-11
v -0.01626784 0.04319999 -2.304712E-11
v 0.04186606 -0.003199995 0.100691
v 0.04186606 0.04319999 0.100691
v 0.158134 -0.003199995 0.1006909
v 0.158134 0.04319999 0.1006909
v 0.2162679 -0.003199995 -1.015487E-08
v 0.2162679 0.04319999 -1.015487E-08
v 0.158134 -0.003199995 -0.100691
v 0.158134 0.04319999 -0.100691
v 0.04186609 -0.003199995 -0.100691
v 0.04186609 0.04319999 -0.100691
v 0 0.15 0
v 0 0.3 0
v 0.05 0.15 0.08660255
v 0.05 0.3 0.08660255
v 0.15 0.15 0.08660254
v 0.15 0.3 0.08660254
v 0.2 0.15 -8.742278E-09
v 0.2 0.3 -8.742278E-09
v 0.15 0.15 -0.08660255
v 0.15 0.3 -0.08660255
v 0.05000001 0.15 -0.08660255
v 0.05000001 0.3 -0.08660255
v 0 0 0
v 0.1 0 0
v 0.05 0 0.08660255
v 0.15 0 0.08660254
v 0.2 0 -8.742278E-09
v 0.15 0 -0.08660255
v 0.05000001 0 -0.08660255
v 0.04994226 0 0.08670255
v -0.0001154542 0.03999999 -3.973643E-12
v 0.04994226 0.03999999 0.08670255
v 0.1500577 0.03999999 0.08670254
v 0.04994228 0 -0.08670255
v 0.04994228 0.03999999 -0.08670255
v 0.1500577 0 -0.08670255
v 0.1500577 0.03999999 -0.08670255
v 0.2001155 0.03999999 -8.754199E-09

vt -0.008133913 -0.003199995
vt -0.008133913 0.04319999
vt 0.108134 -0.003199995
vt 0.108134 0.04319999
vt 0.04186606 -0.003199995
vt 0.04186606 0.04319999
vt 0.158134 -0.003199995
vt 0.158134 0.04319999
vt -0.1081339 -0.003199995
vt -0.1081339 0.04319999
vt 0.008133966 -0.003199995
vt 0.008133966 0.04319999
vt -0.158134 -0.003199995
vt -0.158134 0.04319999
vt -0.04186609 -0.003199995
vt -0.04186609 0.04319999
vt 0 0.15
vt 0 0.3
vt 0.1 0.15
vt 0.1 0.3
vt 0.05 0.15
vt 0.05 0.3
vt 0.15 0.15
vt 0.15 0.3
vt -0.1 0.15
vt -0.1 0.3
vt -0.15 0.15
vt -0.15 0.3
vt -0.05000001 0.15
vt -0.05000001 0.3
vt 0 0
vt 0.1 0
vt 0.05 0.08660255
vt 0.15 0.08660254
vt 0.2 -8.742278E-09
vt 0.15 -0.08660255
vt 0.05000001 -0.08660255
vt 0.04994226 0.08670255
vt 0 0.1499999
vt 0.1 0.1499999
vt -5.77271E-05 0.03999988
vt 0.1000577 0.03999988
vt 0.05 0.1499212
vt 0.15 0.1499212
vt 0.04994225 0.03992115
vt 0.1500577 0.03992115
vt -0.1 0.1499999
vt -0.1000578 0.03999988
vt 0.04994228 -0.08670255
vt 0.1500577 -0.08670255
vt -0.15 0.1499212
vt -0.05000001 0.1499212
vt -0.1500577 0.03992115
vt -0.04994228 0.03992115
vt 0.09999999 0.1498425
vt 0.04899011 0.08724408
vt 0.04044602 0.1013203
vt -0.01657956 -2.50145E-06
vt 0.007886685 0.004372474
vt -0.04121668 0.09161906
vt 0.024353 0.004372474
vt -0.03267258 0.1056952
vt 0.1500577 0.08451923
vt 0.04994226 0.08451924
vt 0.158134 0.09886899
vt 0.04186606 0.098869
vt -0.04994226 0.09343924
vt -0.1500577 0.09343923
vt -0.04186606 0.107789
vt -0.158134 0.107789
vt 0.04899014 -0.08724408
vt 0.04044604 -0.1013203
vt -0.04121672 -0.09161906
vt 0.007886677 -0.004372472
vt -0.03267263 -0.1056952
vt 0.02435299 -0.004372472
vt 0.04994228 -0.08451924
vt 0.1500577 -0.08451924
vt 0.04186609 -0.098869
vt 0.158134 -0.098869
vt -0.1500577 -0.09343924
vt -0.04994228 -0.09343924
vt -0.158134 -0.107789
vt -0.04186609 -0.107789
vt 0.1471969 -0.0829104
vt 0.1963003 0.004336167
vt 0.155741 -0.09698658
vt 0.2127667 0.004336165
vt -0.2040737 -3.879457E-05
vt -0.1549703 -0.08728537
vt -0.2205401 -3.879596E-05
vt -0.1635145 -0.1013616
vt 0.1963003 -0.004336195
vt 0.1471969 0.08291039
vt 0.2127666 -0.004336196
vt 0.155741 0.09698657
vt -0.1549703 0.08728536
vt -0.1635145 0.1013615

vn -1 0 -1.032383E-07
vn -0.5000001 0 0.8660253
vn 0.5000001 0 0.8660253
vn 1 0 -1.720638E-08
vn 0.5000001 0 -0.8660253
vn -0.5000001 0 -0.8660253
vn -0.5 0 0.8660254
vn 0.4999999 0 -0.8660254
vn -0.5 0 -0.8660254
vn 0 -1 0
vn -0.866025 0.0009089655 0.4999998
vn 7.450577E-08 0.0009091058 0.9999996
vn 0 0 0
vn 0 -0.5 0
vn -0.866025 0.0009090063 -0.4999998
vn 0 0.0009091058 -0.9999996
vn 0.866025 0.0009090829 -0.4999999
vn 0.8660251 0.0009090356 0.4999997
vn 0.1931239 -0.9748184 -0.1115001
vn 0.1931241 0.9748184 -0.1115002
vn -1.659563E-08 -0.9748185 -0.2229999
vn -1.659563E-08 0.9748185 -0.223
vn 0.1931241 -0.9748183 0.1115002
vn 0.1931238 0.9748184 0.1115001
vn 0 -0.9748185 0.223
vn 0 0.9748185 0.223
vn -0.1931235 -0.9748185 0.1114999
vn -0.1931237 -0.9748185 0.1115
vn -0.1931237 0.9748184 0.1115
vn -0.1931236 0.9748185 0.1115
vn -0.1931237 -0.9748184 -0.1115
vn -0.1931236 -0.9748185 -0.1115
vn -0.1931235 0.9748185 -0.1114999

usemtl Goldf
f 25/31/10 26/32/10 27/33/10
f 27/33/10 26/32/10 28/34/10
f 28/34/10 26/32/10 29/35/10
f 29/35/10 26/32/10 30/36/10
f 30/36/10 26/32/10 31/37/10
f 31/37/10 26/32/10 25/31/10
f 4/4/2 2/2/1 1/1/1
f 1/1/1 3/3/2 4/4/2
f 6/8/3 4/6/2 3/5/2
f 3/5/2 5/7/3 6/8/3
f 8/4/4 6/2/3 5/1/3
f 5/1/3 7/3/4 8/4/4
f 10/12/5 8/10/4 7/9/4
f 7/9/4 9/11/5 10/12/5
f 12/16/6 10/14/5 9/13/5
f 9/13/5 11/15/6 12/16/6
f 2/12/1 12/10/6 11/9/6
f 11/9/6 1/11/1 2/12/1
f 16/20/7 14/18/1 13/17/1
f 13/17/1 15/19/7 16/20/7
f 18/24/3 16/22/7 15/21/7
f 15/21/7 17/23/3 18/24/3
f 20/20/4 18/18/3 17/17/3
f 17/17/3 19/19/4 20/20/4
f 22/18/8 20/26/4 19/25/4
f 19/25/4 21/17/8 22/18/8
f 24/30/9 22/28/8 21/27/8
f 21/27/8 23/29/9 24/30/9
f 14/18/1 24/26/9 23/25/9
f 23/25/9 13/17/1 14/18/1
f 25/31/10 25/31/10 27/33/10
f 27/33/10 32/38/10 25/31/10
f 34/42/11 15/40/11 13/39/11
f 13/39/11 33/41/11 34/42/11
f 32/38/10 27/33/10 28/34/10
f 28/34/10 28/34/10 32/38/10
f 35/46/12 17/44/12 15/43/12
f 15/43/12 34/45/12 35/46/12
f 36/31/10 31/31/14 25/31/13
f 25/31/13 25/31/14 36/31/10
f 33/41/15 13/39/15 23/47/15
f 23/47/15 37/48/15 33/41/15
f 38/50/10 30/36/10 31/37/10
f 31/37/10 36/49/10 38/50/10
f 37/54/16 23/52/16 21/51/16
f 21/51/16 39/53/16 37/54/16
f 29/35/10 29/35/10 30/36/10
f 30/36/10 38/50/10 29/35/10
f 39/41/17 21/39/17 19/47/17
f 19/47/17 40/48/17 39/41/17
f 28/31/10 28/31/14 29/31/13
f 29/31/13 29/31/14 28/31/10
f 40/42/18 19/55/18 17/39/18
f 17/39/18 35/41/18 40/42/18
f 1/58/19 25/31/19 32/56/19
f 32/56/19 3/57/19 1/58/19
f 4/62/20 34/60/20 33/59/20
f 33/59/20 2/61/20 4/62/20
f 3/66/21 32/64/21 28/63/21
f 28/63/21 5/65/21 3/66/21
f 6/70/22 35/68/22 34/67/22
f 34/67/22 4/69/22 6/70/22
f 11/72/23 36/71/23 25/31/23
f 25/31/23 1/58/23 11/72/23
f 2/76/24 33/74/24 37/73/24
f 37/73/24 12/75/24 2/76/24
f 9/80/25 38/78/25 36/77/25
f 36/77/25 11/79/25 9/80/25
f 12/84/26 37/82/26 39/81/26
f 39/81/26 10/83/26 12/84/26
f 7/88/28 29/86/27 38/85/27
f 38/85/27 9/87/27 7/88/28
f 10/92/30 39/90/30 40/89/29
f 40/89/29 8/91/30 10/92/30
f 5/96/32 28/94/32 29/93/31
f 29/93/31 7/95/32 5/96/32
f 8/91/33 40/89/33 35/97/33
f 35/97/33 6/98/33 8/91/33

